<svg width="28" height="26" viewBox="0 0 28 26" fill="none" xmlns="http://www.w3.org/2000/svg">
	<path
		d="M24.6758 22.375V22.875H25.1758C26.0159 22.875 26.5385 23.4281 26.5385 23.9375C26.5385 24.4469 26.0159 25 25.1758 25H23.3132H6.54945C3.6547 25 1.46154 23.0455 1.46154 20.8125V5.1875C1.46154 2.95445 3.6547 1 6.54945 1H23.3132H25.1758C26.0159 1 26.5385 1.55309 26.5385 2.0625V17.6875C26.5385 18.1969 26.0159 18.75 25.1758 18.75H24.6758V19.25V22.375ZM21.9506 19.25V18.75H21.4506H6.54945C5.32894 18.75 4.18681 19.5934 4.18681 20.8125C4.18681 22.0316 5.32894 22.875 6.54945 22.875H21.4506H21.9506V22.375V19.25ZM9.34341 6.25C8.64094 6.25 7.91209 6.74672 7.91209 7.53125C7.91209 8.31578 8.64094 8.8125 9.34341 8.8125H20.5192C21.2217 8.8125 21.9506 8.31578 21.9506 7.53125C21.9506 6.74672 21.2217 6.25 20.5192 6.25H9.34341ZM20.5192 9.375H9.34341C8.64094 9.375 7.91209 9.87172 7.91209 10.6562C7.91209 11.4408 8.64094 11.9375 9.34341 11.9375H20.5192C21.2217 11.9375 21.9506 11.4408 21.9506 10.6562C21.9506 9.87172 21.2217 9.375 20.5192 9.375Z"
		stroke="#6B7280" />
</svg>