<svg width="29" height="26" viewBox="0 0 29 26" fill="none" xmlns="http://www.w3.org/2000/svg">
<path d="M26.1219 6.76475L25.7683 7.11833L25.7739 7.12391L18.9846 13.9132C18.4823 14.4155 17.6661 14.4155 17.1638 13.9132L13.9607 10.7101L13.6073 10.3567L13.2538 10.7099L8.26496 15.6931L8.26476 15.6933C7.76248 16.1956 6.94625 16.1956 6.44396 15.6933C5.94168 15.191 5.94168 14.3748 6.44396 13.8725L12.694 7.62253C13.1962 7.12024 14.0125 7.12024 14.5148 7.62253L17.7179 10.8257L18.0716 11.1794L18.4252 10.8255L24.3011 4.94396C24.3012 4.94391 24.3012 4.94386 24.3013 4.94381C24.8035 4.44167 25.6197 4.44172 26.1219 4.94396C26.6242 5.44624 26.6242 6.26247 26.1219 6.76475ZM2.00001 1C2.71159 1 3.28572 1.57413 3.28572 2.28571V21.0357C3.28572 21.8029 3.91137 22.4286 4.67858 22.4286H27C27.7116 22.4286 28.2857 23.0027 28.2857 23.7143C28.2857 24.4259 27.7116 25 27 25H4.67858C2.4882 25 0.714294 23.2261 0.714294 21.0357V2.28571C0.714294 1.57413 1.28843 1 2.00001 1Z" stroke="#4B5563"/>
</svg>
