<svg width="43" height="26" viewBox="0 0 43 26" fill="none" xmlns="http://www.w3.org/2000/svg">
<path d="M8.5 21.3333V20.8333H8H4.88462C4.01342 20.8333 3.3077 20.1277 3.3077 19.25V15.0833V14.5833H2.8077C1.93649 14.5833 1.23077 13.8777 1.23077 13C1.23077 12.1223 1.93649 11.4167 2.8077 11.4167H3.3077V10.9167V6.75C3.3077 5.87234 4.01342 5.16667 4.88462 5.16667H8H8.5V4.66667V2.58333C8.5 1.70568 9.20572 1 10.0769 1H11.1154C11.9866 1 12.6923 1.70568 12.6923 2.58333V10.9167V15.0833V23.4167C12.6923 24.2943 11.9866 25 11.1154 25H10.0769C9.20572 25 8.5 24.2943 8.5 23.4167V21.3333ZM34.5 4.66667V5.16667H35H38.1154C38.9866 5.16667 39.6923 5.87234 39.6923 6.75V10.9167V11.4167H40.1923C41.0635 11.4167 41.7692 12.1223 41.7692 13C41.7692 13.8777 41.0635 14.5833 40.1923 14.5833H39.6923V15.0833V19.25C39.6923 20.1277 38.9866 20.8333 38.1154 20.8333H35H34.5V21.3333V23.4167C34.5 24.2943 33.7943 25 32.9231 25H31.8846C31.0134 25 30.3077 24.2943 30.3077 23.4167V15.0833V10.9167V2.58333C30.3077 1.70568 31.0134 1 31.8846 1H32.9231C33.7943 1 34.5 1.70568 34.5 2.58333V4.66667ZM27.2308 14.5833H15.7692V11.4167H27.2308V14.5833Z" stroke="#6B7280"/>
</svg>
